# xmcd
#
# Track frame offsets:
# 150
# 21691
# 47468
# 67530
# 89501
# 112512
# 130265
# 151746
# 169494
# 190398
# 206844
# 225661
# 242469
# 261831
# 280224
# 299541
# 320333
#
# Disc length: 4453 seconds
#
# Revision: 0
# Processed by: cddbd v1.5.2PL0 Copyright (c) Steve Scherf et al.
# Submitted via: Audion 3.0.2 (http://www.panic.com/audion/)
#
DISCID=ed116311
DTITLE=Max Brooks - The Zombie Survival Guide [CD3]
DYEAR=1900
DGENRE=
TTITLE0=Disc 3 - Track 1
TTITLE1=Disc 3 - Track 2
TTITLE2=Disc 3 - Track 3
TTITLE3=Disc 3 - Track 4
TTITLE4=Disc 3 - Track 5
TTITLE5=Disc 3 - Track 6
TTITLE6=Disc 3 - Track 7
TTITLE7=Disc 3 - Track 8
TTITLE8=Disc 3 - Track 9
TTITLE9=Disc 3 - Track 10
TTITLE10=Disc 3 - Track 11
TTITLE11=Disc 3 - Track 12
TTITLE12=Disc 3 - Track 13
TTITLE13=Disc 3 - Track 14
TTITLE14=Disc 3 - Track 15
TTITLE15=Disc 3 - Track 16
TTITLE16=Disc 3 - Track 17
EXTD=
EXTT0=
EXTT1=
EXTT2=
EXTT3=
EXTT4=
EXTT5=
EXTT6=
EXTT7=
EXTT8=
EXTT9=
EXTT10=
EXTT11=
EXTT12=
EXTT13=
EXTT14=
EXTT15=
EXTT16=
PLAYORDER=
